<svg width="40" height="40" viewBox="0 0 40 40" fill="none" xmlns="http://www.w3.org/2000/svg">
<path d="M0 20C0 8.95431 8.95431 0 20 0C31.0457 0 40 8.95431 40 20C40 31.0457 31.0457 40 20 40C8.95431 40 0 31.0457 0 20Z" fill="#007EBD" fill-opacity="0.15"/>
<path d="M27.5 15.5H24.5V13.25C24.5 12.0565 24.0259 10.9119 23.182 10.068C22.3381 9.22411 21.1935 8.75 20 8.75C18.8065 8.75 17.6619 9.22411 16.818 10.068C15.9741 10.9119 15.5 12.0565 15.5 13.25V15.5H12.5C12.1022 15.5 11.7206 15.658 11.4393 15.9393C11.158 16.2206 11 16.6022 11 17V27.5C11 27.8978 11.158 28.2794 11.4393 28.5607C11.7206 28.842 12.1022 29 12.5 29H27.5C27.8978 29 28.2794 28.842 28.5607 28.5607C28.842 28.2794 29 27.8978 29 27.5V17C29 16.6022 28.842 16.2206 28.5607 15.9393C28.2794 15.658 27.8978 15.5 27.5 15.5ZM20 23.375C19.7775 23.375 19.56 23.309 19.375 23.1854C19.19 23.0618 19.0458 22.8861 18.9606 22.6805C18.8755 22.475 18.8532 22.2488 18.8966 22.0305C18.94 21.8123 19.0472 21.6118 19.2045 21.4545C19.3618 21.2972 19.5623 21.19 19.7805 21.1466C19.9988 21.1032 20.225 21.1255 20.4305 21.2106C20.6361 21.2958 20.8118 21.44 20.9354 21.625C21.059 21.81 21.125 22.0275 21.125 22.25C21.125 22.5484 21.0065 22.8345 20.7955 23.0455C20.5845 23.2565 20.2984 23.375 20 23.375ZM23 15.5H17V13.25C17 12.4544 17.3161 11.6913 17.8787 11.1287C18.4413 10.5661 19.2044 10.25 20 10.25C20.7956 10.25 21.5587 10.5661 22.1213 11.1287C22.6839 11.6913 23 12.4544 23 13.25V15.5Z" fill="#007EBD"/>
</svg>
