<svg width="40" height="40" viewBox="0 0 40 40" fill="none" xmlns="http://www.w3.org/2000/svg">
<path d="M0 20C0 8.95431 8.95431 0 20 0C31.0457 0 40 8.95431 40 20C40 31.0457 31.0457 40 20 40C8.95431 40 0 31.0457 0 20Z" fill="#20B858" fill-opacity="0.15"/>
<path d="M20 10C14.49 10 10 14.49 10 20C10 25.51 14.49 30 20 30C25.51 30 30 25.51 30 20C30 14.49 25.51 10 20 10ZM24.78 17.7L19.11 23.37C18.97 23.51 18.78 23.59 18.58 23.59C18.38 23.59 18.19 23.51 18.05 23.37L15.22 20.54C14.93 20.25 14.93 19.77 15.22 19.48C15.51 19.19 15.99 19.19 16.28 19.48L18.58 21.78L23.72 16.64C24.01 16.35 24.49 16.35 24.78 16.64C25.07 16.93 25.07 17.4 24.78 17.7Z" fill="#20B858"/>
</svg>
